<svg id="_x33_0" enable-background="new 0 0 64 64" height="512" viewBox="0 0 64 64" width="512" xmlns="http://www.w3.org/2000/svg"><g><path d="m57 45.513v-6.697c1.161-.414 2-1.514 2-2.816 0-1.654-1.346-3-3-3h-1.184c.112-.314.184-.648.184-1 0-1.654-1.346-3-3-3h-6.157c-2.063 0-3.955-1.039-5.062-2.779l-1.655-2.601.655-2.62h.219c2.757 0 5-2.243 5-5v-7.405c1.237-.736 2-2.047 2-3.504 0-2.256-1.835-4.091-4.09-4.091h-4.13c-5.393 0-9.78 4.387-9.78 9.78 0 2.987 1.338 5.771 3.671 7.637l.088.071c-6.922 1.997-11.759 8.272-11.759 15.665v1.847c0 .393.041.776.103 1.152-1.214.384-2.103 1.508-2.103 2.848 0 1.654 1.346 3 3 3h2.454l2.129 3.313-2.039 1.529c-1.642-1.745-3.965-2.842-6.544-2.842-4.962 0-9 4.038-9 9s4.038 9 9 9c4.624 0 8.441-3.507 8.941-8h2.168c-.066.326-.109.659-.109 1 0 2.757 2.243 5 5 5 2.414 0 4.434-1.721 4.899-4h.101c1.103 0 2-.897 2-2 0-.943-.342-1.8-.89-2.485l10.89-8.47v1.468c-3.569 1.257-6 4.642-6 8.487 0 4.962 4.038 9 9 9s9-4.038 9-9c0-3.845-2.431-7.23-6-8.487zm-6 6.901v.586h-3.916c.169-1.175.626-2.266 1.315-3.187zm-18-6.041-2.062-3.208c1.193.396 2.062 1.51 2.062 2.835zm-3-5.373h-2c-2.757 0-5-2.243-5-5v-1h8.096c4.359 0 7.904 3.545 7.904 7.904 0 .663-.066 1.327-.195 1.975l-1.236 6.179c-.187-.027-.374-.058-.569-.058h-2v-5c0-2.757-2.243-5-5-5zm10.766 4.271c.149-.745.224-1.509.23-2.271h8.09l-9.314 7.245zm10.234-4.271h-10.188c-.768-3.928-3.863-7.03-7.788-7.808.096-1.298.634-2.526 1.512-3.477l.664.885c2.066 2.755 5.356 4.4 8.8 4.4h3.171c-.11.313-.171.649-.171 1 0 1.654 1.346 3 3 3h1zm4-2v12.184c-.314-.112-.648-.184-1-.184s-.686.072-1 .184v-12.184zm-1 16c-.551 0-1-.449-1-1s.449-1 1-1 1 .449 1 1-.449 1-1 1zm-2.816 0c.035.098.072.193.116.285l-2.899 2.899c-.685-.915-1.151-2.001-1.321-3.184zm1.531 1.699c.093.044.188.081.285.116v4.104c-1.183-.17-2.269-.636-3.184-1.322zm2.285.117c.098-.035.193-.072.285-.116l2.899 2.899c-.915.685-2.001 1.151-3.184 1.321zm1.699-1.531c.044-.093.082-.188.116-.285h4.104c-.17 1.183-.636 2.269-1.322 3.184zm.301-2.285v-.586l2.602-2.602c.688.922 1.145 2.012 1.315 3.187h-3.917zm1.18-4.594-1.18 1.18v-1.902c.422.2.812.447 1.18.722zm-1.18-12.406c0 .551-.449 1-1 1h-6c-.551 0-1-.449-1-1s.449-1 1-1h6c.551 0 1 .449 1 1zm-11.157-5h6.157c.551 0 1 .449 1 1s-.449 1-1 1h-8c-2.443 0-4.788-1.014-6.471-2.751l2.664-1.599c1.482 1.488 3.492 2.35 5.65 2.35zm-2.843-15c0 1.654-1.346 3-3 3h-1.781l-.574 2.295-1.571-2.469 1.033-4.133-1.814-1.814c-.189-.189-.293-.441-.293-.708v-.171c0-.551.449-1 1-1h.618l.724-1.447c.17-.341.513-.553.894-.553h4.764zm-12-5.22c0-4.29 3.49-7.78 7.78-7.78h4.129c1.154 0 2.091.938 2.091 2.09 0 .797-.443 1.513-1.155 1.869l-.081.041h-5.528c-1.143 0-2.171.635-2.683 1.658l-.207.414c-1.341.299-2.346 1.498-2.346 2.928v.171c0 .801.312 1.555.879 2.122l1.014 1.014-.485 1.939-.488-.39c-1.856-1.485-2.92-3.7-2.92-6.076zm3.515 9.321 4.432 6.965-2.688 1.613-2.459-3.279-1.6 1.2 1.118 1.491c-1.32 1.302-2.135 3.054-2.283 4.909h-7.985c.501-6.393 5.132-11.64 11.465-12.899zm-13.515 19.899c0-.45.304-.816.713-.942.354.726.826 1.383 1.397 1.942h-1.11c-.551 0-1-.449-1-1zm7.454 3 4.546 7.072v2.524l-6.168-9.596zm-10.454 12c-.551 0-1-.449-1-1s.449-1 1-1 1 .449 1 1-.449 1-1 1zm-1-3.816c-.098.035-.193.072-.285.116l-2.899-2.899c.915-.686 2.001-1.151 3.184-1.322zm-1.699 1.531c-.044.093-.082.188-.116.285h-4.105c.17-1.183.636-2.269 1.322-3.184zm-.117 2.285c.035.098.072.193.116.285l-2.899 2.899c-.685-.915-1.151-2.001-1.321-3.184zm1.531 1.699c.093.044.188.081.285.116v4.104c-1.183-.17-2.269-.636-3.184-1.322zm2.285.117c.098-.035.193-.072.285-.116l2.899 2.899c-.915.685-2.001 1.151-3.184 1.321zm2-3.816 3.141-2.356c.394.718.658 1.514.779 2.356zm-1.339-1.495c-.203-.135-.427-.237-.661-.32v-4.105c1.526.22 2.897.926 3.94 1.966zm3.937 6.679-2.899-2.899c.044-.093.082-.188.116-.285h4.104c-.169 1.183-.635 2.269-1.321 3.184zm3.343-5.184c-.143-1.289-.564-2.493-1.195-3.56l1.922-1.441 2.847 4.428c-.185.18-.357.369-.51.573zm7.059 6c-1.654 0-3-1.346-3-3 0-.675.241-1.303.641-1.82l1.222 1.901c.37.575.999.919 1.683.919h2.27c-.414 1.161-1.514 2-2.816 2zm1-4v-2h2c1.103 0 2 .897 2 2zm16-5.414-1.18-1.18c.368-.275.757-.522 1.18-.722z"/><path d="m7 13h20v2h-20z"/><path d="m1 13h4v2h-4z"/><path d="m15 17h8v2h-8z"/><path d="m9 17h4v2h-4z"/><path d="m3 21h16v2h-16z"/><path d="m7 25h8v2h-8z"/></g></svg>